<svg xmlns="http://www.w3.org/2000/svg" viewBox="0 0 1400 1050" width="1400" height="1050" role="presentation">
  <defs>
    <linearGradient id="sky" x1="0.1" y1="0" x2="0.5" y2="1">
      <stop offset="0%" stop-color="#FFEDE8"/>
      <stop offset="100%" stop-color="#FFD2C4"/>
    </linearGradient>
    <filter id="grain" x="0" y="0" width="100%" height="100%">
      <feTurbulence type="fractalNoise" baseFrequency="0.9" numOctaves="3" stitchTiles="stitch"/>
      <feColorMatrix type="saturate" values="0"/>
    </filter>
  </defs>
  <rect width="1400" height="1050" fill="url(#sky)"/>
  
  <circle cx="780.1" cy="385" r="27.2" fill="#3BA9E0" opacity="0.85"/>
  <circle cx="758.7" cy="305.8" r="28.1" fill="#77CE7D" opacity="0.85"/>
  <circle cx="1239.9" cy="416.2" r="24.3" fill="#EE5233" opacity="0.85"/>
  <circle cx="186.1" cy="433.3" r="16.6" fill="#3BA9E0" opacity="0.85"/>
  <circle cx="1203.5" cy="529.9" r="14" fill="#77CE7D" opacity="0.85"/>
  <circle cx="1003" cy="97.2" r="27.7" fill="#EE5233" opacity="0.85"/>
  <circle cx="278.5" cy="337.1" r="18.8" fill="#3BA9E0" opacity="0.85"/>
  <circle cx="1289" cy="527.6" r="25" fill="#77CE7D" opacity="0.85"/>
  <circle cx="142.5" cy="59.3" r="19.8" fill="#EE5233" opacity="0.85"/>
  <path d="M 338.3 858.1 A 462.8 462.8 0 0 1 1263.9 858.1" fill="none" stroke="#EE5233" stroke-width="89.9" stroke-linecap="round"/>
  <path d="M 438.3 858.1 A 362.8 362.8 0 0 1 1163.9 858.1" fill="none" stroke="#3BA9E0" stroke-width="89.9" stroke-linecap="round"/>
  <path d="M 538.2 858.1 A 262.9 262.9 0 0 1 1064 858.1" fill="none" stroke="#77CE7D" stroke-width="89.9" stroke-linecap="round"/>
  <path d="M 638.2 858.1 A 162.9 162.9 0 0 1 964 858.1" fill="none" stroke="#FFAB93" stroke-width="89.9" stroke-linecap="round"/>
  <path d="M0 858.1 H 1400 V 1050 H 0 Z" fill="#FFAB93"/>
  <rect width="1400" height="1050" filter="url(#grain)" opacity="0.05" style="mix-blend-mode:multiply"/>
</svg>
