<svg xmlns="http://www.w3.org/2000/svg" viewBox="0 0 1400 1750" width="1400" height="1750" role="presentation">
  <defs>
    <linearGradient id="sky" x1="0.1" y1="0" x2="0.6" y2="1">
      <stop offset="0%" stop-color="#FFF4EF"/>
      <stop offset="100%" stop-color="#FF9F80"/>
    </linearGradient>
    <linearGradient id="shaft" x1="0" y1="0" x2="0" y2="1">
      <stop offset="0%" stop-color="#FFFFFF" stop-opacity="0.42"/>
      <stop offset="100%" stop-color="#FFFFFF" stop-opacity="0"/>
    </linearGradient>
    <radialGradient id="bloom" cx="24%" cy="16%" r="82%">
      <stop offset="0%" stop-color="#FFFFFF" stop-opacity="0.38"/>
      <stop offset="100%" stop-color="#FFFFFF" stop-opacity="0"/>
    </radialGradient>
    <filter id="grain" x="0" y="0" width="100%" height="100%">
      <feTurbulence type="fractalNoise" baseFrequency="0.9" numOctaves="3" stitchTiles="stitch"/>
      <feColorMatrix type="saturate" values="0"/>
    </filter>
  </defs>
  <rect width="1400" height="1750" fill="url(#sky)"/>
  
  <path d="M0 1552.6 H 1400 V 1750 H 0 Z" fill="#FF9F80" opacity="0.92"/>
  <path d="M504.9 1711.2 V 693.7 A 235.8 235.8 0 0 1 976.6 693.7 V 1711.2 Z" fill="#FFC6B1"/>
  <path d="M589.8 1711.2 V 693.7 A 150.9 150.9 0 0 1 891.7 693.7 V 1711.2 Z" fill="#FFE4D8" opacity="0.9"/>
  <circle cx="812.5" cy="1352.1" r="66" fill="#F07954" opacity="0.45"/>
  <polygon points="137.3,0 409.2,0 628.9,1750 357,1750" fill="url(#shaft)" opacity="0.45"/>
  <rect width="1400" height="1750" fill="url(#bloom)"/>
  <rect width="1400" height="1750" filter="url(#grain)" opacity="0.11" style="mix-blend-mode:multiply"/>
</svg>
