<svg xmlns="http://www.w3.org/2000/svg" viewBox="0 0 1400 933" width="1400" height="933" role="presentation">
  <defs>
    <linearGradient id="sky" x1="0.1" y1="0" x2="0.5" y2="1">
      <stop offset="0%" stop-color="#E6F5FD"/>
      <stop offset="100%" stop-color="#C6E8F8"/>
    </linearGradient>
    <filter id="grain" x="0" y="0" width="100%" height="100%">
      <feTurbulence type="fractalNoise" baseFrequency="0.9" numOctaves="3" stitchTiles="stitch"/>
      <feColorMatrix type="saturate" values="0"/>
    </filter>
  </defs>
  <rect width="1400" height="933" fill="url(#sky)"/>
  
  <line x1="784.5" y1="364.1" x2="833" y2="364.1" stroke="#F5B41C" stroke-width="16.8" stroke-linecap="round" opacity="0.75"/>
  <line x1="746.7" y1="480.5" x2="785.9" y2="509" stroke="#F5B41C" stroke-width="16.8" stroke-linecap="round" opacity="0.75"/>
  <line x1="647.7" y1="552.5" x2="662.7" y2="598.5" stroke="#F5B41C" stroke-width="16.8" stroke-linecap="round" opacity="0.75"/>
  <line x1="525.3" y1="552.5" x2="510.3" y2="598.5" stroke="#F5B41C" stroke-width="16.8" stroke-linecap="round" opacity="0.75"/>
  <line x1="426.3" y1="480.5" x2="387.1" y2="509" stroke="#F5B41C" stroke-width="16.8" stroke-linecap="round" opacity="0.75"/>
  <line x1="388.5" y1="364.1" x2="340" y2="364.1" stroke="#F5B41C" stroke-width="16.8" stroke-linecap="round" opacity="0.75"/>
  <line x1="426.3" y1="247.7" x2="387.1" y2="219.2" stroke="#F5B41C" stroke-width="16.8" stroke-linecap="round" opacity="0.75"/>
  <line x1="525.3" y1="175.7" x2="510.3" y2="129.7" stroke="#F5B41C" stroke-width="16.8" stroke-linecap="round" opacity="0.75"/>
  <line x1="647.7" y1="175.7" x2="662.7" y2="129.7" stroke="#F5B41C" stroke-width="16.8" stroke-linecap="round" opacity="0.75"/>
  <line x1="746.7" y1="247.7" x2="785.9" y2="219.2" stroke="#F5B41C" stroke-width="16.8" stroke-linecap="round" opacity="0.75"/>
  <circle cx="586.5" cy="364.1" r="146.7" fill="#F5B41C"/>
  <circle cx="586.5" cy="364.1" r="73.4" fill="#FFEDB4"/>
  <circle cx="186" cy="355.1" r="12.7" fill="#F5B41C" opacity="0.85"/>
  <circle cx="746.6" cy="461.9" r="19.5" fill="#FA85AC" opacity="0.85"/>
  <circle cx="1101.8" cy="50.7" r="20.3" fill="#3BA9E0" opacity="0.85"/>
  <circle cx="483.8" cy="51.4" r="25.5" fill="#F5B41C" opacity="0.85"/>
  <circle cx="741.9" cy="339" r="11.5" fill="#FA85AC" opacity="0.85"/>
  <circle cx="420.2" cy="501.9" r="20.8" fill="#3BA9E0" opacity="0.85"/>
  <circle cx="733.9" cy="162.8" r="20.8" fill="#F5B41C" opacity="0.85"/>
  <path d="M0 585.3 C 420 521.1, 924 630.2, 1400 553.2 L 1400 933 L 0 933 Z" fill="#93D3F0"/>
  <path d="M0 706.6 C 420 659.6, 924 739.4, 1400 683.1 L 1400 933 L 0 933 Z" fill="#66C0E9"/>
  <path d="M0 827.8 C 420 743.2, 924 887.1, 1400 785.5 L 1400 933 L 0 933 Z" fill="#3BA9E0"/>
  <rect width="1400" height="933" filter="url(#grain)" opacity="0.05" style="mix-blend-mode:multiply"/>
</svg>
