<svg xmlns="http://www.w3.org/2000/svg" viewBox="0 0 1400 1050" width="1400" height="1050" role="presentation">
  <defs>
    <linearGradient id="sky" x1="0.1" y1="0" x2="0.5" y2="1">
      <stop offset="0%" stop-color="#E8F8E9"/>
      <stop offset="100%" stop-color="#CDF0CF"/>
    </linearGradient>
    <filter id="grain" x="0" y="0" width="100%" height="100%">
      <feTurbulence type="fractalNoise" baseFrequency="0.9" numOctaves="3" stitchTiles="stitch"/>
      <feColorMatrix type="saturate" values="0"/>
    </filter>
  </defs>
  <rect width="1400" height="1050" fill="url(#sky)"/>
  
  <circle cx="516.3" cy="246.6" r="105" fill="#66C0E9"/>
  <circle cx="107.4" cy="436" r="19.9" fill="#3BA9E0" opacity="0.85"/>
  <circle cx="404.7" cy="305.8" r="28.2" fill="#FF7350" opacity="0.85"/>
  <circle cx="814.3" cy="290.1" r="15.7" fill="#4CB963" opacity="0.85"/>
  <circle cx="957.4" cy="410.9" r="15.7" fill="#3BA9E0" opacity="0.85"/>
  <circle cx="1070.2" cy="431.3" r="18.1" fill="#FF7350" opacity="0.85"/>
  <circle cx="121.3" cy="271.4" r="23.4" fill="#4CB963" opacity="0.85"/>
  <rect x="246" y="532.1" width="29.4" height="246.7" rx="14.7" fill="#4CB963" opacity="0.55"/>
  <circle cx="260.7" cy="532.1" r="151.6" fill="#4CB963" opacity="0.9"/>
  <rect x="704.1" y="537.4" width="29.4" height="241.4" rx="14.7" fill="#4CB963" opacity="0.55"/>
  <circle cx="718.8" cy="537.4" r="132.3" fill="#3BA9E0" opacity="0.9"/>
  <rect x="1122.2" y="526.8" width="29.4" height="252" rx="14.7" fill="#4CB963" opacity="0.55"/>
  <circle cx="1136.9" cy="526.8" r="134.1" fill="#FF7350" opacity="0.9"/>
  <path d="M0 778.8 C 490 726.3, 980 820.8, 1400 757.8 L 1400 1050 L 0 1050 Z" fill="#77CE7D"/>
  <rect width="1400" height="1050" filter="url(#grain)" opacity="0.05" style="mix-blend-mode:multiply"/>
</svg>
