<svg xmlns="http://www.w3.org/2000/svg" viewBox="0 0 1400 933" width="1400" height="933" role="presentation">
  <defs>
    <linearGradient id="sky" x1="0.1" y1="0" x2="0.5" y2="1">
      <stop offset="0%" stop-color="#E8F8E9"/>
      <stop offset="100%" stop-color="#CDF0CF"/>
    </linearGradient>
    <filter id="grain" x="0" y="0" width="100%" height="100%">
      <feTurbulence type="fractalNoise" baseFrequency="0.9" numOctaves="3" stitchTiles="stitch"/>
      <feColorMatrix type="saturate" values="0"/>
    </filter>
  </defs>
  <rect width="1400" height="933" fill="url(#sky)"/>
  
  <circle cx="485.6" cy="240" r="93.3" fill="#66C0E9"/>
  <circle cx="475.4" cy="422.7" r="23.7" fill="#3BA9E0" opacity="0.85"/>
  <circle cx="397.2" cy="509.4" r="12.5" fill="#FF7350" opacity="0.85"/>
  <circle cx="1152" cy="381.1" r="18.6" fill="#4CB963" opacity="0.85"/>
  <circle cx="895.1" cy="258.6" r="17.5" fill="#3BA9E0" opacity="0.85"/>
  <circle cx="445.5" cy="127.7" r="26" fill="#FF7350" opacity="0.85"/>
  <circle cx="219.9" cy="481.4" r="12.5" fill="#4CB963" opacity="0.85"/>
  <rect x="324.4" y="397.5" width="26.1" height="230.5" rx="13.1" fill="#4CB963" opacity="0.55"/>
  <circle cx="337.5" cy="397.5" r="112.9" fill="#4CB963" opacity="0.9"/>
  <rect x="729.1" y="350.7" width="26.1" height="277.3" rx="13.1" fill="#4CB963" opacity="0.55"/>
  <circle cx="742.2" cy="350.7" r="152.6" fill="#3BA9E0" opacity="0.9"/>
  <rect x="1039.1" y="425" width="26.1" height="203" rx="13.1" fill="#4CB963" opacity="0.55"/>
  <circle cx="1052.2" cy="425" r="114.4" fill="#FF7350" opacity="0.9"/>
  <path d="M0 628 C 490 581.3, 980 665.3, 1400 609.3 L 1400 933 L 0 933 Z" fill="#77CE7D"/>
  <rect width="1400" height="933" filter="url(#grain)" opacity="0.05" style="mix-blend-mode:multiply"/>
</svg>
