<svg xmlns="http://www.w3.org/2000/svg" viewBox="0 0 400 120" width="400" height="120">
    <defs>
          <linearGradient id="logoGrad" x1="0%" y1="0%" x2="100%" y2="100%">
                  <stop offset="0%" style="stop-color:#3B82F6;stop-opacity:1" />
                  <stop offset="100%" style="stop-color:#1D4ED8;stop-opacity:1" />
          </linearGradient>
          <linearGradient id="iconGrad" x1="0%" y1="0%" x2="100%" y2="100%">
                  <stop offset="0%" style="stop-color:#60A5FA;stop-opacity:1" />
                  <stop offset="100%" style="stop-color:#2563EB;stop-opacity:1" />
          </linearGradient>
    </defs>
    <g transform="translate(20, 10)">
          <path d="M50 0 L90 20 L90 65 Q90 90 50 100 Q10 90 10 65 L10 20 Z" fill="url(#iconGrad)" opacity="0.15" />
          <path d="M50 8 L84 25 L84 63 Q84 84 50 93 Q16 84 16 63 L16 25 Z" fill="none" stroke="url(#logoGrad)" stroke-width="2.5" />
          <path d="M50 28 L68 50 L56 50 L56 72 L44 72 L44 50 L32 50 Z" fill="url(#logoGrad)" />
    </g>
    <text x="125" y="73" font-family="system-ui, -apple-system, 'Segoe UI', Helvetica, Arial, sans-serif" font-size="52" font-weight="700" letter-spacing="-1" fill="#F8FAFC">Odigos</text>
    <text x="127" y="95" font-family="system-ui, -apple-system, 'Segoe UI', Helvetica, Arial, sans-serif" font-size="13" font-weight="400" letter-spacing="3" fill="#64748B">YOUR DEAL GUIDE</text>
</svg>
